<?xml version="1.0" encoding="UTF-8"?>
<svg width="600" height="160" version="1.1" viewBox="0 0 600 160" xmlns="http://www.w3.org/2000/svg" xmlns:cc="http://creativecommons.org/ns#" xmlns:dc="http://purl.org/dc/elements/1.1/" xmlns:rdf="http://www.w3.org/1999/02/22-rdf-syntax-ns#" xmlns:xlink="http://www.w3.org/1999/xlink">
 <defs>
  <linearGradient id="linearGradient3441" x1="1" x2="598" y1="162" y2="2" gradientUnits="userSpaceOnUse">
   <stop stop-color="#cc2b5e" offset="0"/>
   <stop stop-color="#753a88" offset="1"/>
  </linearGradient>
 </defs>
 <metadata>
  <rdf:RDF>
   <cc:Work rdf:about="">
    <dc:format>image/svg+xml</dc:format>
    <dc:type rdf:resource="http://purl.org/dc/dcmitype/StillImage"/>
    <dc:title/>
   </cc:Work>
  </rdf:RDF>
 </metadata>
 <path d="m65.219 3.0236e-4 35.979 52.605c-5.8905 8.8711-12.128 9.6994-13.794 9.7558h-87.404v26.444h65.219c6.9651-6.5e-5 13.986-6.5e-5 21.742 0 20.681 6.4e-5 35.607-18.421 39.975-24.509l1.3239-1.9354v-3.25e-4l42.652-62.361h-34.784l-18.199 27.408-17.927-27.408zm196.3 44.427q0 14.209-5.8897 24.222-5.8896 10.013-17.074 15.049-11.125 5.0362-26.593 5.0362-15.468 0-26.593-5.0362-11.065-5.0962-16.777-14.989-5.7112-9.9525-5.7112-24.282 0-10.852 3.2721-19.066 3.272-8.2738 9.5782-13.91 6.3061-5.6357 15.468-8.5136 9.1617-2.9378 20.763-2.9378 15.408 0 26.593 5.1561 11.184 5.0962 17.074 15.109 5.8897 9.9525 5.8897 24.162zm-68.118 0.23962q0 8.3337 3.6885 14.509 3.748 6.1754 14.694 6.1754 8.4478 0 12.612-3.2376 4.2239-3.2375 5.2352-7.3745 1.0708-4.1968 1.4278-10.072-0.35698-8.3337-3.986-14.509-3.629-6.2353-15.289-6.2353-18.383 0-18.383 20.744zm91.393 42.718v-61.017h-17.913v-25.875h68.786q10.33 0 18.211 2.768 7.8817 2.7681 13.315 7.4617 5.4336 4.6936 9.0162 12.697 3.6423 8.0032 3.6423 20.82-0.65684 11.854-3.9409 20.158-3.284 8.3041-8.7176 13.118-5.4336 4.814-13.315 7.4617-7.822 2.6477-19.644 2.407zm28.78-65.35v43.687h16.42q5.553 0 8.9564-2.3468 3.4035-2.407 5.553-6.0776 2.1495-3.7308 2.7466-13.359-0.17911-8.7855-2.4481-12.938-2.2093-4.2122-5.7321-6.5591-3.5228-2.407-9.1953-2.407zm115.52-22.035h-39.104v26.445h21.542l-20.321 62.36h31.611l0.13908-0.39942 0.1784 0.28743 5.5142-15.878 37.915-17.958h-31.678l5.711-16.444 3.9777-11.454 0.99553-2.8664 21.041 30.764 5.1315 7.503 1.324 1.9354c4.3686 6.0877 19.294 24.509 39.975 24.509h86.961v-26.444h-87.404c-1.6662-0.05613-7.9039-0.88461-13.794-9.7558l-34.784-52.384-0.07328-0.22035h-0.0733zm-429.09 115.61v13.216h36.699l8.7759-13.216zm59.186 0-8.7759 13.216h23.958v31.165h38.183v-13.216h-23.849v-31.166h-23.483zm164.84 9.8354-6.313 17.58h12.138zm-26.075 3.3808v-13.216h36.963l14.73 44.382h-16.652l-2.7753-7.9912h-13.083l-2.7753 7.9912h-15.798l10.156-31.165zm146.24 31.165v-31.165h-9.1493v-13.216h39.189q7.228 0.0614 10.979 2.5203 3.7816 2.4588 4.5746 8.237 0.27439 4.4258-1.8603 6.9461-2.1348 2.5202-7.0449 4.1492v0.12299q2.4093 0.30735 4.4527 1.3216 2.0433 0.98358 3.4157 2.3666 1.4028 1.3524 2.1653 3.0735 0.76241 1.7212 0.76241 3.3809 0 5.2557-2.6838 7.9603-2.6532 2.7047-6.8619 3.5346-4.1782 0.82985-10.156 0.76836zm15.188-17.181v8.2063h9.7897q2.5313 0.0922 4.4222-1.1065 1.8908-1.1986 1.8908-2.9506 0.183-1.9363-1.5554-3.0427-1.7079-1.1064-4.7576-1.1064zm0-16.443v6.731h10.674q0.88439 0 1.8603-0.92209 0.97591-0.95278 1.0369-2.5202-0.12197-1.8134-1.1894-2.551-1.0369-0.73768-1.7383-0.73768zm145.14-10.757c-5.6115 0-8.9458 2.7457-10.003 8.237-1.0573 5.4914 1.9519 11.516 9.0273 18.072 4.29 3.4014 3.558 5.0201-2.196 4.8562h-24.276v13.216h38.427c6.3435-1.0654 9.5762-4.3437 9.6981-9.835 0.12208-5.4914-3.1106-11.147-9.6981-16.966-3.68-3.0736-2.9075-4.5282 2.3178-4.3643h31.72l-8.7759-13.216h-9.0986zm49.953 0 8.7756 13.216h36.747v-13.216z" fill="url(#linearGradient3441)"/>
</svg>
