<svg
        width="926.4mm"
        height="245.23"
        viewBox="0 0 926.4 245.23"
        xmlns="http://www.w3.org/2000/svg"
        id="yoda-labs-logo"
      >
        <defs>
          <linearGradient
            id="yoda-labs-logo-gradient"
            x1="1"
            x2="926"
            y1="245"
            y2="1"
            gradientUnits="userSpaceOnUse"
          >
            <stop stop-color="#fc9867" offset="0" />
            <stop stop-color="#ff6188" offset="1" />
          </linearGradient>
        </defs>
        <path
          d="M100.81.132l55.544 80.582c-9.094 13.59-18.723 14.858-21.295 14.944H.129v40.51h134.245c31.927 0 54.969-28.219 61.713-37.544l2.044-2.964v0L263.975.132h-53.698l-28.095 41.984L154.507.133z"
        />
        <path
          d="M403.85 68.187q0 21.766-9.092 37.104-9.093 15.338-26.358 23.052-17.174 7.715-41.053 7.715t-41.053-7.715q-17.082-7.807-25.9-22.96-8.816-15.246-8.816-37.196 0-16.623 5.051-29.206 5.052-12.674 14.786-21.307 9.735-8.633 23.88-13.041 14.143-4.5 32.052-4.5 23.787 0 41.053 7.898 17.266 7.807 26.358 23.144 9.093 15.246 9.093 37.012zm-105.16.367q0 12.766 5.694 22.226 5.786 9.46 22.685 9.46 13.042 0 19.47-4.96 6.52-4.959 8.082-11.296 1.653-6.428 2.204-15.428-.55-12.767-6.153-22.227-5.602-9.551-23.603-9.551-28.379 0-28.379 31.777z"
        />
        <path
          d="M439.78 133.99V40.521h-27.654V.884h106.19q15.947 0 28.114 4.24t20.556 11.43q8.388 7.19 13.919 19.45 5.623 12.26 5.623 31.894-1.014 18.16-6.084 30.88-5.07 12.721-13.458 20.095-8.388 7.374-20.556 11.43-12.075 4.056-30.327 3.687zm44.43-100.11v66.921h25.349q8.573 0 13.827-3.595 5.254-3.687 8.573-9.31 3.318-5.715 4.24-20.464-.277-13.458-3.78-19.818-3.41-6.452-8.849-10.048-5.438-3.687-14.195-3.687z"
        />
        <path
          d="M602.18.132v40.51h33.255l-31.371 95.525h48.8l.214-.612.276.44 8.513-24.321h48.784l9.747-27.508h-48.904l8.817-25.19 7.677-21.935 32.483 47.125 7.922 11.493 2.044 2.964c6.744 9.326 29.786 37.544 61.713 37.543H926.4V95.657H791.47c-2.572-.086-12.202-1.355-21.295-14.944L716.476.47l-.113-.337h-53.811z"
        />
        <path
          d="M.132 177.23v20.245h56.654l13.548-20.245zm91.37 0l-13.549 20.245h36.986v47.74h58.946V224.97h-36.818v-47.741h-36.253z"
        />
        <path
          d="M345.98 192.3l-9.746 26.93h18.738zm-40.254 5.179v-20.245h57.062l22.74 67.986h-25.706l-4.284-12.241H335.34l-4.285 12.24h-24.388l15.678-47.74z"
        />
        <path
          d="M531.49 245.22v-47.74h-14.124v-20.245h60.499q11.158.094 16.949 3.86 5.838 3.767 7.062 12.619.424 6.78-2.872 10.64-3.296 3.86-10.876 6.356v.188q3.72.47 6.874 2.024 3.155 1.507 5.273 3.626 2.166 2.071 3.343 4.708 1.177 2.636 1.177 5.179 0 8.05-4.143 12.194-4.096 4.143-10.593 5.414-6.45 1.271-15.678 1.177zm23.446-26.318v12.571h15.113q3.908.141 6.827-1.695t2.919-4.52q.282-2.966-2.401-4.66-2.637-1.696-7.345-1.696zm0-25.188v10.311h16.478q1.365 0 2.872-1.413 1.507-1.459 1.6-3.86-.188-2.778-1.835-3.908-1.601-1.13-2.684-1.13z"
        />
        <path
          d="M779 177.23c-8.663 0-13.81 4.206-15.442 12.618-1.632 8.412 3.013 17.64 13.936 27.684 6.623 5.21 5.493 7.69-3.39 7.439h-37.477v20.245h59.322c9.793-1.632 14.783-6.654 14.972-15.066.188-8.412-4.802-17.075-14.972-25.99-5.681-4.707-4.488-6.936 3.578-6.685h48.97l-13.549-20.245h-14.046zm77.116 0l13.548 20.245h56.728V177.23z"
        />
      </svg>